<svg xmlns="http://www.w3.org/2000/svg" viewBox="0 0 128 128"><style>@media (prefers-color-scheme: dark){.tile{fill:#201e1a}}</style><rect class="tile" width="128" height="128" rx="28.0" fill="#E8E4DA"/><g transform="translate(14.08,29.81) scale(0.1710)"><polygon points="0,0 64,0 64,400 0,400" fill="#D9711F"/><polygon points="0,0 64,0 64,400 0,400" fill="none" stroke="#18181b" stroke-opacity="0.3" stroke-width="4"/><polygon points="192,0 256,0 256,232 192,232" fill="#2E7D46"/><polygon points="192,0 256,0 256,232 192,232" fill="none" stroke="#18181b" stroke-opacity="0.3" stroke-width="4"/><polygon points="76.07,208 147.93,208 245.93,400 174.07,400" fill="#2B5799"/><polygon points="76.07,208 147.93,208 245.93,400 174.07,400" fill="none" stroke="#18181b" stroke-opacity="0.3" stroke-width="4"/><polygon points="0,0 256,0 256,64 0,64" fill="#D9711F"/><polygon points="0,0 256,0 256,64 0,64" fill="none" stroke="#18181b" stroke-opacity="0.3" stroke-width="4"/><polygon points="0,168 256,168 256,232 0,232" fill="#2B5799"/><polygon points="0,168 256,168 256,232 0,232" fill="none" stroke="#18181b" stroke-opacity="0.3" stroke-width="4"/><polygon points="328,0 392,0 392,400 328,400" fill="#2E7D46"/><polygon points="328,0 392,0 392,400 328,400" fill="none" stroke="#18181b" stroke-opacity="0.3" stroke-width="4"/><polygon points="520,0 584,0 584,400 520,400" fill="#63452E"/><polygon points="520,0 584,0 584,400 520,400" fill="none" stroke="#18181b" stroke-opacity="0.3" stroke-width="4"/><polygon points="347.88,0 416.12,0 564.12,400 495.88,400" fill="#63452E"/><polygon points="347.88,0 416.12,0 564.12,400 495.88,400" fill="none" stroke="#18181b" stroke-opacity="0.3" stroke-width="4"/></g></svg>